<?xml version="1.0" standalone="no"?>
<!DOCTYPE svg PUBLIC "-//W3C//DTD SVG 20010904//EN"
 "http://www.w3.org/TR/2001/REC-SVG-20010904/DTD/svg10.dtd">
<svg version="1.0" xmlns="http://www.w3.org/2000/svg"
 width="1142.000000pt" height="1142.000000pt" viewBox="0 0 1142.000000 1142.000000"
 preserveAspectRatio="xMidYMid meet">
<metadata>
Created by potrace 1.14, written by Peter Selinger 2001-2017
</metadata>
<g transform="translate(0.000000,1142.000000) scale(0.100000,-0.100000)"
fill="#000000" stroke="none">
<path d="M1649 10687 c-455 -480 -639 -684 -776 -854 -298 -373 -524 -789
-673 -1243 -162 -490 -210 -876 -181 -1448 21 -413 79 -691 216 -1042 47 -119
153 -334 230 -465 103 -177 261 -405 280 -405 7 0 19 8 28 18 15 16 15 23 2
65 -19 63 -23 59 142 126 l52 21 63 -21 c35 -12 99 -40 143 -62 143 -71 300
-163 925 -545 113 -69 295 -180 405 -247 1006 -614 1547 -990 1990 -1384 72
-64 160 -142 197 -174 l66 -58 56 36 c135 86 285 147 456 185 235 52 707 50
952 -5 77 -17 235 -73 298 -105 l43 -22 61 59 c331 319 840 699 1468 1097 99
63 553 336 628 378 25 14 113 63 195 110 83 46 256 142 385 213 129 70 240
131 245 135 6 4 46 26 90 50 44 23 143 76 220 118 210 113 433 221 493 238 47
14 57 14 109 -1 66 -19 104 -55 122 -114 16 -54 66 -111 97 -111 71 0 366 487
492 810 154 398 209 693 228 1245 21 579 -120 1207 -396 1764 -252 509 -470
792 -1224 1591 -133 140 -258 275 -278 299 -21 25 -39 43 -41 40 -2 -2 -24
-32 -50 -66 -72 -94 -159 -176 -257 -242 -251 -168 -490 -233 -860 -234 -345
-1 -579 44 -1080 208 -129 43 -255 83 -280 90 -503 147 -914 205 -1357 191
-448 -14 -891 -100 -1398 -271 -362 -122 -526 -164 -763 -195 -561 -73 -1023
48 -1317 344 -44 45 -96 105 -114 134 -19 28 -37 52 -40 52 -3 -1 -135 -137
-292 -303z m2099 -832 c217 -24 362 -67 561 -166 273 -135 518 -334 713 -581
122 -152 186 -254 312 -490 50 -94 74 -116 151 -142 148 -48 310 -41 438 20
42 19 95 38 119 41 50 7 74 24 83 61 8 34 123 245 183 337 176 269 419 505
689 668 231 140 458 220 713 252 387 47 738 -26 1075 -224 306 -180 536 -407
760 -749 l60 -92 563 0 562 0 -2 -232 -3 -233 -50 -5 c-82 -9 -79 0 -72 -199
7 -191 -5 -455 -28 -646 -114 -924 -672 -1769 -1405 -2128 -205 -100 -352
-144 -575 -171 -71 -9 -146 -23 -165 -31 -217 -89 -666 -103 -930 -29 -249 71
-486 192 -670 344 -79 66 -270 259 -325 329 -22 28 -56 72 -76 97 -57 71 -215
340 -254 434 -117 273 -196 520 -234 729 -31 167 -33 194 -40 407 -7 225 -7
226 -83 265 -60 30 -109 34 -161 11 -77 -34 -77 -35 -81 -328 -4 -265 -12
-344 -57 -539 -29 -129 -130 -424 -183 -538 -25 -54 -46 -100 -46 -103 0 -2
192 -5 427 -6 l426 -3 106 -156 c91 -133 160 -230 181 -249 3 -3 36 -41 74
-85 38 -44 82 -92 99 -107 l30 -27 -30 -48 c-17 -26 -56 -100 -88 -163 -157
-311 -398 -730 -625 -1085 -45 -71 -103 -163 -128 -203 -25 -39 -48 -72 -51
-72 -7 0 -211 309 -303 460 -147 240 -372 645 -526 947 -42 84 -81 153 -85
153 -5 0 -54 -41 -110 -91 -365 -325 -835 -480 -1305 -428 -113 12 -275 50
-382 89 -58 21 -101 29 -189 34 -461 27 -895 267 -1270 702 -251 291 -424 602
-554 994 -119 361 -157 607 -166 1095 l-6 330 -42 3 c-30 2 -46 9 -53 22 -6
12 -9 102 -8 237 l3 218 589 5 589 5 83 124 c104 154 174 241 283 354 319 330
716 534 1129 581 157 18 204 18 360 1z"/>
<path d="M7750 9350 c-213 -26 -429 -115 -616 -253 -92 -67 -277 -253 -345
-347 -258 -352 -389 -768 -389 -1236 0 -448 137 -897 386 -1260 254 -371 561
-590 929 -665 93 -19 305 -16 405 5 596 127 1090 697 1254 1446 57 259 69 470
40 718 -37 333 -152 651 -331 922 -97 147 -304 357 -438 446 -168 111 -349
186 -518 214 -91 15 -291 20 -377 10z m-154 -1929 c203 -92 302 -548 198 -909
-45 -153 -113 -254 -198 -293 -51 -23 -71 -23 -122 0 -241 110 -322 709 -141
1053 49 95 137 168 202 168 11 0 38 -9 61 -19z"/>
<path d="M3415 9344 c-293 -43 -576 -192 -791 -415 -214 -224 -383 -530 -464
-846 -102 -397 -82 -874 53 -1293 155 -476 441 -874 767 -1065 392 -230 862
-215 1245 39 313 208 519 463 683 846 185 434 222 996 96 1455 -31 111 -65
217 -74 230 -4 6 -11 21 -15 35 -11 38 -121 255 -162 318 -57 91 -155 212
-234 291 -196 195 -429 327 -684 387 -68 15 -352 28 -420 18z m842 -580 c-3
-3 -12 -4 -19 -1 -8 3 -5 6 6 6 11 1 17 -2 13 -5z m-351 -1399 c84 -50 164
-173 203 -315 115 -414 -53 -905 -309 -905 -212 0 -382 363 -341 729 43 385
247 608 447 491z"/>
<path d="M1167 8298 c-66 -764 87 -1438 446 -1972 128 -192 346 -430 487 -533
91 -66 193 -133 204 -133 5 0 -20 30 -55 68 -176 183 -378 517 -479 792 -81
218 -149 493 -176 708 -21 169 -21 537 0 687 24 165 70 366 95 413 6 11 11 25
11 31 0 8 -84 11 -264 11 l-263 0 -6 -72z"/>
<path d="M9824 8353 c37 -122 81 -329 103 -478 23 -166 23 -536 -1 -695 -25
-172 -72 -385 -113 -512 -68 -216 -204 -496 -335 -693 l-60 -90 107 105 c121
119 205 219 280 335 268 412 406 796 456 1275 14 132 16 409 5 623 l-8 147
-220 0 c-204 0 -219 -1 -214 -17z"/>
<path d="M10200 5067 c-119 -69 -199 -113 -475 -257 -66 -35 -164 -87 -218
-116 -53 -30 -99 -54 -101 -54 -2 0 -63 -34 -135 -75 -73 -41 -134 -75 -136
-75 -3 0 -44 -23 -92 -51 -48 -28 -135 -79 -193 -112 -135 -79 -557 -332 -635
-382 -520 -333 -894 -614 -1241 -933 -64 -59 -136 -125 -161 -147 -39 -36 -43
-43 -30 -54 13 -10 22 -7 54 22 168 150 955 701 1513 1058 246 158 378 243
501 322 47 31 185 115 305 188 120 72 257 155 304 184 47 29 186 112 310 185
206 122 570 355 570 366 0 10 -22 -1 -140 -69z"/>
<path d="M763 5023 c-26 -5 -26 -1 -13 -113 12 -98 34 -329 55 -580 14 -172
32 -368 60 -665 7 -82 21 -229 29 -325 9 -96 18 -188 21 -205 3 -16 9 -88 15
-160 11 -144 31 -367 55 -610 16 -164 48 -520 85 -930 28 -306 47 -505 68
-705 l17 -165 1605 -5 c969 -3 1613 -9 1625 -14 11 -6 52 -29 92 -53 60 -37
84 -45 147 -52 89 -10 151 -1 179 27 34 34 39 213 33 1123 -6 931 -12 846 62
883 17 9 32 23 32 31 0 7 -16 31 -36 52 -63 67 -74 84 -74 123 0 31 7 44 35
68 47 42 113 79 198 113 40 16 67 28 61 29 -17 0 -122 -42 -181 -73 -28 -15
-98 -61 -154 -104 -151 -114 -261 -146 -368 -108 -64 22 -177 100 -506 346
-332 249 -700 520 -842 620 -51 35 -181 127 -290 204 -228 160 -852 579 -1156
776 -114 74 -263 170 -330 213 -401 259 -435 276 -524 259z"/>
<path d="M10560 4954 c-41 -25 -113 -69 -160 -98 -47 -29 -186 -115 -310 -191
-266 -163 -347 -213 -648 -405 -125 -80 -267 -170 -316 -200 -531 -332 -1413
-934 -1826 -1246 -210 -158 -282 -194 -392 -194 -70 0 -101 14 -183 84 -94 80
-177 131 -245 151 -14 3 11 -12 55 -34 99 -51 121 -71 107 -98 -6 -11 -44 -43
-85 -71 -40 -28 -79 -58 -86 -66 -23 -28 -9 -58 39 -83 58 -30 71 -48 65 -92
-2 -20 -11 -121 -20 -226 -15 -179 -31 -369 -55 -635 -5 -63 -17 -187 -25
-275 -43 -440 -51 -754 -20 -802 19 -28 66 -37 164 -30 92 6 155 27 242 78
l65 39 1591 0 c920 0 1594 4 1597 9 6 10 37 217 60 411 36 287 56 463 71 600
8 80 20 179 25 220 5 41 14 120 20 175 5 55 16 154 24 220 25 204 54 459 81
705 14 129 35 312 46 405 11 94 38 330 60 525 21 195 57 499 79 675 39 316 59
488 56 492 -1 1 -35 -18 -76 -43z"/>
<path d="M2062 4584 c10 -10 20 -16 22 -13 3 3 -5 11 -17 18 -21 13 -21 12 -5
-5z"/>
<path d="M2117 4554 c11 -11 81 -57 154 -104 141 -90 749 -495 834 -556 28
-20 127 -90 220 -157 94 -66 409 -299 700 -517 596 -446 583 -436 595 -424 12
12 8 17 -100 114 -332 298 -600 502 -1045 799 -376 250 -556 364 -925 587 -80
48 -176 108 -215 132 -38 25 -94 60 -125 77 -30 17 -68 39 -85 49 -29 18 -30
18 -8 0z"/>
<path d="M5673 2953 c43 -2 110 -2 150 0 40 1 5 3 -78 3 -82 0 -115 -2 -72 -3z"/>
<path d="M5380 2943 c-14 -2 -65 -10 -114 -18 -49 -8 -94 -15 -99 -15 -6 0 -8
-2 -5 -5 3 -3 38 0 79 6 41 6 117 17 169 24 68 9 81 13 45 12 -27 0 -61 -2
-75 -4z"/>
<path d="M6013 2943 c15 -2 39 -2 55 0 15 2 2 4 -28 4 -30 0 -43 -2 -27 -4z"/>
<path d="M6175 2925 c92 -17 137 -17 60 0 -33 8 -76 14 -95 13 -23 0 -12 -4
35 -13z"/>
<path d="M6301 2906 c2 -2 18 -6 34 -10 22 -5 26 -4 15 4 -14 9 -59 15 -49 6z"/>
<path d="M6400 2875 c46 -18 64 -17 25 0 -16 8 -37 14 -45 14 -8 0 1 -7 20
-14z"/>
</g>
</svg>
